<?xml version="1.0" encoding="UTF-8"?>
<svg xmlns="http://www.w3.org/2000/svg" xmlns:xlink="http://www.w3.org/1999/xlink" width="56" height="36" viewBox="0 0 56 36">
<defs>
<clipPath id="clip-0">
<path clip-rule="nonzero" d="M 0 0 L 12 0 L 12 12 L 0 12 Z M 0 0 "/>
</clipPath>
<clipPath id="clip-1">
<rect x="0" y="0" width="12" height="12"/>
</clipPath>
<g id="source-240" clip-path="url(#clip-1)">
<g clip-path="url(#clip-0)">
<path fill="none" stroke-width="1" stroke-linecap="butt" stroke-linejoin="miter" stroke="rgb(0%, 0%, 0%)" stroke-opacity="1" stroke-miterlimit="10" d="M 13 -13 L -1 1 M 13 -7 L -1 7 M 13 -1 L -1 13 M 13 5 L -1 19 M 13 11 L -1 25 "/>
</g>
</g>
<pattern id="pattern-0" patternUnits="userSpaceOnUse" x="0" y="0" width="12" height="12" viewBox="0 0 12 12" patternTransform="matrix(1, 0, 0, 1, 3, 3)">
<use xlink:href="#source-240"/>
</pattern>
</defs>
<path fill-rule="nonzero" fill="url(#pattern-0)" d="M 3 3 L 53 3 L 53 33 L 3 33 Z M 3 3 "/>
<path fill="none" stroke-width="1" stroke-linecap="round" stroke-linejoin="round" stroke="rgb(0%, 0%, 0%)" stroke-opacity="1" stroke-miterlimit="10" d="M 0.5 0.5 L 49.5 0.5 L 49.5 29.5 L 0.5 29.5 Z M 0.5 0.5 " transform="matrix(1, 0, 0, 1, 3, 3)"/>
</svg>
