<?xml version="1.0" encoding="UTF-8"?>
<svg xmlns="http://www.w3.org/2000/svg" xmlns:xlink="http://www.w3.org/1999/xlink" width="37.606602" height="49.213203" viewBox="0 0 37.606602 49.213203">
<path fill-rule="nonzero" fill="rgb(56.078431%, 73.72549%, 54.509804%)" fill-opacity="1" d="M 10.5 10.5 L 18 10.5 C 18 6.359375 14.640625 3 10.5 3 C 6.359375 3 3 6.359375 3 10.5 C 3 14.640625 6.359375 18 10.5 18 C 14.640625 18 18 14.640625 18 10.5 Z M 10.5 10.5 "/>
<path fill="none" stroke-width="1" stroke-linecap="round" stroke-linejoin="round" stroke="rgb(0%, 0%, 0%)" stroke-opacity="1" stroke-miterlimit="10" d="M 14.5 7.5 C 14.5 3.632812 11.367188 0.5 7.5 0.5 C 3.632812 0.5 0.5 3.632812 0.5 7.5 C 0.5 11.367188 3.632812 14.5 7.5 14.5 C 11.367188 14.5 14.5 11.367188 14.5 7.5 " transform="matrix(1, 0, 0, 1, 3, 3)"/>
<path fill-rule="nonzero" fill="rgb(37.647059%, 62.745098%, 62.745098%)" fill-opacity="1" d="M 30 3 L 45 3 L 45 18 L 30 18 Z M 30 3 "/>
<path fill="none" stroke-width="1" stroke-linecap="round" stroke-linejoin="round" stroke="rgb(0%, 0%, 0%)" stroke-opacity="1" stroke-miterlimit="10" d="M 27.5 0.5 L 41.5 0.5 L 41.5 14.5 L 27.5 14.5 Z M 27.5 0.5 " transform="matrix(1, 0, 0, 1, 3, 3)"/>
<path fill-rule="nonzero" fill="rgb(86.666667%, 62.745098%, 86.666667%)" fill-opacity="1" d="M 13.394531 35.605469 L 24 25 L 34.605469 35.605469 L 24 46.210938 Z M 13.394531 35.605469 "/>
<path fill="none" stroke-width="1" stroke-linecap="round" stroke-linejoin="round" stroke="rgb(0%, 0%, 0%)" stroke-opacity="1" stroke-miterlimit="10" d="M 0.106563 -0.104961 L 14.105068 -0.104961 L 14.105068 13.893543 L 0.106563 13.893543 Z M 0.106563 -0.104961 " transform="matrix(0.707107, -0.707107, 0.707107, 0.707107, 13.393398, 35.606602)"/>
</svg>
