<?xml version="1.0" encoding="UTF-8"?>
<svg xmlns="http://www.w3.org/2000/svg" xmlns:xlink="http://www.w3.org/1999/xlink" width="21" height="36" viewBox="0 0 21 36">
<rect x="-2.1" y="-3.6" width="25.2" height="43.2" fill="rgb(94.117647%, 90.196078%, 54.901961%)" fill-opacity="1"/>
<path fill="none" stroke-width="1" stroke-linecap="round" stroke-linejoin="round" stroke="rgb(0%, 0%, 0%)" stroke-opacity="1" stroke-miterlimit="10" d="M -9.5 -9.5 L 39.5 -9.5 L 39.5 39.5 L -9.5 39.5 Z M -9.5 -9.5 " transform="matrix(1, 0, 0, 1, 3, 3)"/>
<path fill-rule="nonzero" fill="rgb(62.745098%, 32.156863%, 17.647059%)" fill-opacity="1" d="M 3 3 L 18 3 L 18 33 L 3 33 Z M 3 3 "/>
<path fill="none" stroke-width="1" stroke-linecap="round" stroke-linejoin="round" stroke="rgb(0%, 0%, 0%)" stroke-opacity="1" stroke-miterlimit="10" d="M 0.5 0.5 L 14.5 0.5 L 14.5 29.5 L 0.5 29.5 Z M 0.5 0.5 " transform="matrix(1, 0, 0, 1, 3, 3)"/>
<path fill-rule="nonzero" fill="rgb(74.117647%, 71.764706%, 41.960784%)" fill-opacity="1" d="M 18 3 L 33 3 L 33 33 L 18 33 Z M 18 3 "/>
<path fill="none" stroke-width="1" stroke-linecap="round" stroke-linejoin="round" stroke="rgb(0%, 0%, 0%)" stroke-opacity="1" stroke-miterlimit="10" d="M 15.5 0.5 L 29.5 0.5 L 29.5 29.5 L 15.5 29.5 Z M 15.5 0.5 " transform="matrix(1, 0, 0, 1, 3, 3)"/>
</svg>
