<?xml version="1.0" encoding="UTF-8"?>
<svg xmlns="http://www.w3.org/2000/svg" xmlns:xlink="http://www.w3.org/1999/xlink" width="56" height="56" viewBox="0 0 56 56">
<path fill-rule="nonzero" fill="rgb(94.117647%, 90.196078%, 54.901961%)" fill-opacity="1" d="M 3 3 L 53 3 L 53 53 L 3 53 Z M 3 3 "/>
<path fill="none" stroke-width="1" stroke-linecap="round" stroke-linejoin="round" stroke="rgb(0%, 0%, 0%)" stroke-opacity="1" stroke-miterlimit="10" d="M 0.5 0.5 L 49.5 0.5 L 49.5 49.5 L 0.5 49.5 Z M 0.5 0.5 " transform="matrix(1, 0, 0, 1, 3, 3)"/>
<path fill-rule="nonzero" fill="rgb(62.745098%, 32.156863%, 17.647059%)" fill-opacity="1" d="M 13 13 L 28 13 L 28 43 L 13 43 Z M 13 13 "/>
<path fill="none" stroke-width="1" stroke-linecap="round" stroke-linejoin="round" stroke="rgb(0%, 0%, 0%)" stroke-opacity="1" stroke-miterlimit="10" d="M 10.5 10.5 L 24.5 10.5 L 24.5 39.5 L 10.5 39.5 Z M 10.5 10.5 " transform="matrix(1, 0, 0, 1, 3, 3)"/>
<path fill-rule="nonzero" fill="rgb(74.117647%, 71.764706%, 41.960784%)" fill-opacity="1" d="M 28 13 L 43 13 L 43 43 L 28 43 Z M 28 13 "/>
<path fill="none" stroke-width="1" stroke-linecap="round" stroke-linejoin="round" stroke="rgb(0%, 0%, 0%)" stroke-opacity="1" stroke-miterlimit="10" d="M 25.5 10.5 L 39.5 10.5 L 39.5 39.5 L 25.5 39.5 Z M 25.5 10.5 " transform="matrix(1, 0, 0, 1, 3, 3)"/>
</svg>
