<?xml version="1.0" encoding="UTF-8"?>
<svg xmlns="http://www.w3.org/2000/svg" xmlns:xlink="http://www.w3.org/1999/xlink" width="41" height="41" viewBox="0 0 41 41">
<path fill-rule="nonzero" fill="rgb(41.568627%, 35.294118%, 80.392157%)" fill-opacity="1" d="M 13 3 L 28 3 L 28 18 L 13 18 Z M 13 3 "/>
<path fill="none" stroke-width="1" stroke-linecap="round" stroke-linejoin="round" stroke="rgb(0%, 0%, 0%)" stroke-opacity="1" stroke-miterlimit="10" d="M 10.5 0.5 L 24.5 0.5 L 24.5 14.5 L 10.5 14.5 Z M 10.5 0.5 " transform="matrix(1, 0, 0, 1, 3, 3)"/>
<path fill-rule="nonzero" fill="rgb(69.803922%, 13.333333%, 13.333333%)" fill-opacity="1" d="M 10.5 30.5 L 18 30.5 C 18 26.359375 14.640625 23 10.5 23 C 6.359375 23 3 26.359375 3 30.5 C 3 34.640625 6.359375 38 10.5 38 C 14.640625 38 18 34.640625 18 30.5 Z M 10.5 30.5 "/>
<path fill="none" stroke-width="1" stroke-linecap="round" stroke-linejoin="round" stroke="rgb(0%, 0%, 0%)" stroke-opacity="1" stroke-miterlimit="10" d="M 14.5 27.5 C 14.5 23.632812 11.367188 20.5 7.5 20.5 C 3.632812 20.5 0.5 23.632812 0.5 27.5 C 0.5 31.367188 3.632812 34.5 7.5 34.5 C 11.367188 34.5 14.5 31.367188 14.5 27.5 " transform="matrix(1, 0, 0, 1, 3, 3)"/>
<path fill-rule="nonzero" fill="rgb(13.333333%, 54.509804%, 13.333333%)" fill-opacity="1" d="M 30.5 30.5 L 38 30.5 C 38 26.359375 34.640625 23 30.5 23 C 26.359375 23 23 26.359375 23 30.5 C 23 34.640625 26.359375 38 30.5 38 C 34.640625 38 38 34.640625 38 30.5 Z M 30.5 30.5 "/>
<path fill="none" stroke-width="1" stroke-linecap="round" stroke-linejoin="round" stroke="rgb(0%, 0%, 0%)" stroke-opacity="1" stroke-miterlimit="10" d="M 34.5 27.5 C 34.5 23.632812 31.367188 20.5 27.5 20.5 C 23.632812 20.5 20.5 23.632812 20.5 27.5 C 20.5 31.367188 23.632812 34.5 27.5 34.5 C 31.367188 34.5 34.5 31.367188 34.5 27.5 " transform="matrix(1, 0, 0, 1, 3, 3)"/>
<path fill="none" stroke-width="1" stroke-linecap="round" stroke-linejoin="round" stroke="rgb(0%, 0%, 0%)" stroke-opacity="1" stroke-miterlimit="10" d="M 0.5 35.5 L 35.5 35.5 " transform="matrix(1, 0, 0, 1, 3, 3)"/>
<path fill="none" stroke-width="1" stroke-linecap="round" stroke-linejoin="round" stroke="rgb(0%, 0%, 0%)" stroke-opacity="1" stroke-miterlimit="10" d="M 0.5 0.5 L 35.5 0.5 " transform="matrix(1, 0, 0, 1, 3, 3)"/>
<path fill="none" stroke-width="1" stroke-linecap="round" stroke-linejoin="round" stroke="rgb(0%, 0%, 0%)" stroke-opacity="1" stroke-miterlimit="10" d="M 0.5 35.5 L 0.5 0.5 " transform="matrix(1, 0, 0, 1, 3, 3)"/>
<path fill="none" stroke-width="1" stroke-linecap="round" stroke-linejoin="round" stroke="rgb(0%, 0%, 0%)" stroke-opacity="1" stroke-miterlimit="10" d="M 35.5 35.5 L 35.5 0.5 " transform="matrix(1, 0, 0, 1, 3, 3)"/>
</svg>
