<?xml version="1.0" encoding="UTF-8"?>
<svg xmlns="http://www.w3.org/2000/svg" xmlns:xlink="http://www.w3.org/1999/xlink" width="37.606602" height="49.213203" viewBox="0 0 37.606602 49.213203">
<path fill-rule="nonzero" fill="rgb(56.078431%, 73.72549%, 54.509804%)" fill-opacity="1" d="M 0.105469 10.5 L 7.605469 10.5 C 7.605469 6.359375 4.25 3 0.105469 3 C -4.035156 3 -7.394531 6.359375 -7.394531 10.5 C -7.394531 14.640625 -4.035156 18 0.105469 18 C 4.25 18 7.605469 14.640625 7.605469 10.5 Z M 0.105469 10.5 "/>
<path fill="none" stroke-width="1" stroke-linecap="round" stroke-linejoin="round" stroke="rgb(0%, 0%, 0%)" stroke-opacity="1" stroke-miterlimit="10" d="M 3.5 7.5 C 3.5 3.632812 0.367188 0.5 -3.5 0.5 C -7.367188 0.5 -10.5 3.632812 -10.5 7.5 C -10.5 11.367188 -7.367188 14.5 -3.5 14.5 C 0.367188 14.5 3.5 11.367188 3.5 7.5 " transform="matrix(1, 0, 0, 1, 3, 3)"/>
<path fill-rule="nonzero" fill="rgb(37.647059%, 62.745098%, 62.745098%)" fill-opacity="1" d="M 19.605469 3 L 34.605469 3 L 34.605469 18 L 19.605469 18 Z M 19.605469 3 "/>
<path fill="none" stroke-width="1" stroke-linecap="round" stroke-linejoin="round" stroke="rgb(0%, 0%, 0%)" stroke-opacity="1" stroke-miterlimit="10" d="M 16.5 0.5 L 30.5 0.5 L 30.5 14.5 L 16.5 14.5 Z M 16.5 0.5 " transform="matrix(1, 0, 0, 1, 3, 3)"/>
<path fill-rule="nonzero" fill="rgb(86.666667%, 62.745098%, 86.666667%)" fill-opacity="1" d="M 3 35.605469 L 13.605469 25 L 24.210938 35.605469 L 13.605469 46.210938 Z M 3 35.605469 "/>
<path fill="none" stroke-width="1" stroke-linecap="round" stroke-linejoin="round" stroke="rgb(0%, 0%, 0%)" stroke-opacity="1" stroke-miterlimit="10" d="M 0.500748 -0.108524 L 14.499252 -0.108524 L 14.499252 13.88998 L 0.500748 13.88998 Z M 0.500748 -0.108524 " transform="matrix(0.707107, -0.707107, 0.707107, 0.707107, 3, 35.606602)"/>
</svg>
